<mxfile host="app.diagrams.net" modified="2022-10-15T10:01:40.236Z" agent="5.0 (Windows NT 10.0; Win64; x64) AppleWebKit/537.36 (KHTML, like Gecko) Chrome/104.0.5112.124 YaBrowser/22.9.3.886 Yowser/2.5 Safari/537.36" etag="JZdbDo-aFg45MTHwgFRf" version="20.4.0" type="github">
  <diagram name="Page-1" id="5f0bae14-7c28-e335-631c-24af17079c00">
    <mxGraphModel dx="2547" dy="795" grid="1" gridSize="10" guides="1" tooltips="1" connect="1" arrows="1" fold="1" page="1" pageScale="1" pageWidth="1100" pageHeight="850" background="none" math="0" shadow="0">
      <root>
        <mxCell id="0" />
        <mxCell id="1" parent="0" />
        <mxCell id="z_dfq3fB56m8ApO_WFzZ-20" value="" style="shape=folder;fontStyle=1;spacingTop=10;tabWidth=40;tabHeight=14;tabPosition=left;html=1;" vertex="1" parent="1">
          <mxGeometry x="-10" y="10" width="410" height="440" as="geometry" />
        </mxCell>
        <mxCell id="z_dfq3fB56m8ApO_WFzZ-19" value="&lt;h2&gt;&lt;br&gt;&lt;/h2&gt;" style="shape=folder;fontStyle=1;spacingTop=10;tabWidth=40;tabHeight=14;tabPosition=left;html=1;" vertex="1" parent="1">
          <mxGeometry x="1285" y="20" width="150" height="430" as="geometry" />
        </mxCell>
        <mxCell id="z_dfq3fB56m8ApO_WFzZ-17" value="&lt;h2&gt;&lt;br&gt;&lt;/h2&gt;" style="shape=folder;fontStyle=1;spacingTop=10;tabWidth=40;tabHeight=14;tabPosition=left;html=1;" vertex="1" parent="1">
          <mxGeometry x="1000" y="10" width="270" height="440" as="geometry" />
        </mxCell>
        <mxCell id="z_dfq3fB56m8ApO_WFzZ-16" value="&lt;h2&gt;&lt;br&gt;&lt;/h2&gt;" style="shape=folder;fontStyle=1;spacingTop=10;tabWidth=40;tabHeight=14;tabPosition=left;html=1;" vertex="1" parent="1">
          <mxGeometry x="710" y="10" width="270" height="440" as="geometry" />
        </mxCell>
        <mxCell id="z_dfq3fB56m8ApO_WFzZ-13" value="&lt;h2&gt;&lt;br&gt;&lt;/h2&gt;" style="shape=folder;fontStyle=1;spacingTop=10;tabWidth=40;tabHeight=14;tabPosition=left;html=1;" vertex="1" parent="1">
          <mxGeometry x="420" y="10" width="270" height="440" as="geometry" />
        </mxCell>
        <mxCell id="z_dfq3fB56m8ApO_WFzZ-1" value="Public Category Controller" style="rounded=1;whiteSpace=wrap;html=1;" vertex="1" parent="1">
          <mxGeometry x="720" y="50" width="120" height="60" as="geometry" />
        </mxCell>
        <mxCell id="z_dfq3fB56m8ApO_WFzZ-2" value="Public Event Controller" style="rounded=1;whiteSpace=wrap;html=1;" vertex="1" parent="1">
          <mxGeometry x="10" y="50" width="120" height="60" as="geometry" />
        </mxCell>
        <mxCell id="z_dfq3fB56m8ApO_WFzZ-4" value="Admin User Controller" style="rounded=1;whiteSpace=wrap;html=1;" vertex="1" parent="1">
          <mxGeometry x="1300" y="50" width="120" height="60" as="geometry" />
        </mxCell>
        <mxCell id="z_dfq3fB56m8ApO_WFzZ-5" value="Admin Category Controller" style="rounded=1;whiteSpace=wrap;html=1;" vertex="1" parent="1">
          <mxGeometry x="850" y="50" width="120" height="60" as="geometry" />
        </mxCell>
        <mxCell id="z_dfq3fB56m8ApO_WFzZ-6" value="Public Compilation Controller" style="rounded=1;whiteSpace=wrap;html=1;" vertex="1" parent="1">
          <mxGeometry x="430" y="50" width="120" height="60" as="geometry" />
        </mxCell>
        <mxCell id="z_dfq3fB56m8ApO_WFzZ-7" value="Admin Event Controller" style="rounded=1;whiteSpace=wrap;html=1;" vertex="1" parent="1">
          <mxGeometry x="270" y="50" width="120" height="60" as="geometry" />
        </mxCell>
        <mxCell id="z_dfq3fB56m8ApO_WFzZ-8" value="Admin Compilation&amp;nbsp;Controller" style="rounded=1;whiteSpace=wrap;html=1;" vertex="1" parent="1">
          <mxGeometry x="560" y="50" width="120" height="60" as="geometry" />
        </mxCell>
        <mxCell id="z_dfq3fB56m8ApO_WFzZ-9" value="Private Request Controller" style="rounded=1;whiteSpace=wrap;html=1;" vertex="1" parent="1">
          <mxGeometry x="1010" y="50" width="120" height="60" as="geometry" />
        </mxCell>
        <mxCell id="z_dfq3fB56m8ApO_WFzZ-10" value="Private Event Controller" style="rounded=1;whiteSpace=wrap;html=1;" vertex="1" parent="1">
          <mxGeometry x="140" y="50" width="120" height="60" as="geometry" />
        </mxCell>
        <mxCell id="z_dfq3fB56m8ApO_WFzZ-18" value="Admin Request Controller" style="rounded=1;whiteSpace=wrap;html=1;" vertex="1" parent="1">
          <mxGeometry x="1140" y="50" width="120" height="60" as="geometry" />
        </mxCell>
        <mxCell id="z_dfq3fB56m8ApO_WFzZ-27" value="@Service&lt;span style=&quot;&quot;&gt;&lt;br&gt;EventServiceImpl&lt;br&gt;&lt;/span&gt;" style="html=1;dropTarget=0;strokeColor=default;fontFamily=Helvetica;fontSize=12;fontColor=default;fillColor=default;" vertex="1" parent="1">
          <mxGeometry x="140" y="270" width="120" height="70" as="geometry" />
        </mxCell>
        <mxCell id="z_dfq3fB56m8ApO_WFzZ-28" value="" style="shape=module;jettyWidth=8;jettyHeight=4;strokeColor=default;fontFamily=Helvetica;fontSize=12;fontColor=default;fillColor=default;html=1;" vertex="1" parent="z_dfq3fB56m8ApO_WFzZ-27">
          <mxGeometry x="1" width="20" height="20" relative="1" as="geometry">
            <mxPoint x="-27" y="7" as="offset" />
          </mxGeometry>
        </mxCell>
        <mxCell id="z_dfq3fB56m8ApO_WFzZ-29" value="interface&lt;br&gt;EventService" style="html=1;strokeColor=default;fontFamily=Helvetica;fontSize=12;fontColor=default;fillColor=default;" vertex="1" parent="1">
          <mxGeometry x="145" y="165" width="110" height="50" as="geometry" />
        </mxCell>
        <mxCell id="z_dfq3fB56m8ApO_WFzZ-30" value="" style="shape=cylinder3;whiteSpace=wrap;html=1;boundedLbl=1;backgroundOutline=1;size=15;strokeColor=default;fontFamily=Helvetica;fontSize=12;fontColor=default;fillColor=default;" vertex="1" parent="1">
          <mxGeometry x="530" y="550" width="220" height="200" as="geometry" />
        </mxCell>
        <mxCell id="z_dfq3fB56m8ApO_WFzZ-31" value="@Repository&lt;br&gt;EventRepository" style="html=1;strokeColor=default;fontFamily=Helvetica;fontSize=12;fontColor=default;fillColor=default;" vertex="1" parent="1">
          <mxGeometry x="145" y="380" width="110" height="50" as="geometry" />
        </mxCell>
        <mxCell id="z_dfq3fB56m8ApO_WFzZ-38" value="" style="endArrow=block;dashed=1;endFill=0;endSize=12;html=1;rounded=0;fontFamily=Helvetica;fontSize=12;fontColor=default;entryX=0.25;entryY=0;entryDx=0;entryDy=0;" edge="1" parent="1" target="z_dfq3fB56m8ApO_WFzZ-27">
          <mxGeometry width="160" relative="1" as="geometry">
            <mxPoint x="170" y="220" as="sourcePoint" />
            <mxPoint x="350" y="210" as="targetPoint" />
          </mxGeometry>
        </mxCell>
        <mxCell id="z_dfq3fB56m8ApO_WFzZ-39" value="" style="endArrow=block;startArrow=block;endFill=1;startFill=1;html=1;rounded=0;fontFamily=Helvetica;fontSize=12;fontColor=default;exitX=0.5;exitY=1;exitDx=0;exitDy=0;" edge="1" parent="1" source="z_dfq3fB56m8ApO_WFzZ-10" target="z_dfq3fB56m8ApO_WFzZ-29">
          <mxGeometry width="160" relative="1" as="geometry">
            <mxPoint x="190" y="110" as="sourcePoint" />
            <mxPoint x="350" y="110" as="targetPoint" />
          </mxGeometry>
        </mxCell>
        <mxCell id="z_dfq3fB56m8ApO_WFzZ-40" value="" style="endArrow=block;startArrow=block;endFill=1;startFill=1;html=1;rounded=0;fontFamily=Helvetica;fontSize=12;fontColor=default;exitX=0.5;exitY=1;exitDx=0;exitDy=0;entryX=1;entryY=0;entryDx=0;entryDy=0;" edge="1" parent="1" source="z_dfq3fB56m8ApO_WFzZ-7" target="z_dfq3fB56m8ApO_WFzZ-29">
          <mxGeometry width="160" relative="1" as="geometry">
            <mxPoint x="210" y="120" as="sourcePoint" />
            <mxPoint x="210" y="175" as="targetPoint" />
          </mxGeometry>
        </mxCell>
        <mxCell id="z_dfq3fB56m8ApO_WFzZ-44" value="" style="endArrow=block;startArrow=block;endFill=1;startFill=1;html=1;rounded=0;fontFamily=Helvetica;fontSize=12;fontColor=default;exitX=0.5;exitY=1;exitDx=0;exitDy=0;entryX=0;entryY=0;entryDx=0;entryDy=0;" edge="1" parent="1" source="z_dfq3fB56m8ApO_WFzZ-2" target="z_dfq3fB56m8ApO_WFzZ-29">
          <mxGeometry width="160" relative="1" as="geometry">
            <mxPoint x="210" y="120" as="sourcePoint" />
            <mxPoint x="210" y="175" as="targetPoint" />
          </mxGeometry>
        </mxCell>
        <mxCell id="z_dfq3fB56m8ApO_WFzZ-45" value="return" style="html=1;verticalAlign=bottom;endArrow=open;dashed=1;endSize=8;rounded=0;fontFamily=Helvetica;fontSize=12;fontColor=default;exitX=0.657;exitY=0.011;exitDx=0;exitDy=0;exitPerimeter=0;" edge="1" parent="1" source="z_dfq3fB56m8ApO_WFzZ-27">
          <mxGeometry relative="1" as="geometry">
            <mxPoint x="370" y="240" as="sourcePoint" />
            <mxPoint x="220" y="220" as="targetPoint" />
          </mxGeometry>
        </mxCell>
        <mxCell id="z_dfq3fB56m8ApO_WFzZ-46" value="@Service&lt;span style=&quot;&quot;&gt;&lt;br&gt;&lt;/span&gt;&lt;span style=&quot;&quot;&gt;Compilation&lt;/span&gt;&lt;span style=&quot;&quot;&gt;ServiceImpl&lt;br&gt;&lt;/span&gt;" style="html=1;dropTarget=0;strokeColor=default;fontFamily=Helvetica;fontSize=12;fontColor=default;fillColor=default;" vertex="1" parent="1">
          <mxGeometry x="480" y="270" width="150" height="70" as="geometry" />
        </mxCell>
        <mxCell id="z_dfq3fB56m8ApO_WFzZ-47" value="" style="shape=module;jettyWidth=8;jettyHeight=4;strokeColor=default;fontFamily=Helvetica;fontSize=12;fontColor=default;fillColor=default;html=1;" vertex="1" parent="z_dfq3fB56m8ApO_WFzZ-46">
          <mxGeometry x="1" width="20" height="20" relative="1" as="geometry">
            <mxPoint x="-27" y="7" as="offset" />
          </mxGeometry>
        </mxCell>
        <mxCell id="z_dfq3fB56m8ApO_WFzZ-48" value="interface&lt;br&gt;&lt;span style=&quot;&quot;&gt;Compilation&lt;/span&gt;Service" style="html=1;strokeColor=default;fontFamily=Helvetica;fontSize=12;fontColor=default;fillColor=default;" vertex="1" parent="1">
          <mxGeometry x="500" y="165" width="110" height="50" as="geometry" />
        </mxCell>
        <mxCell id="z_dfq3fB56m8ApO_WFzZ-49" value="@Repository&lt;br&gt;&lt;span style=&quot;&quot;&gt;Compilation&lt;/span&gt;Repository" style="html=1;strokeColor=default;fontFamily=Helvetica;fontSize=12;fontColor=default;fillColor=default;" vertex="1" parent="1">
          <mxGeometry x="480" y="375" width="150" height="60" as="geometry" />
        </mxCell>
        <mxCell id="z_dfq3fB56m8ApO_WFzZ-50" value="" style="endArrow=block;dashed=1;endFill=0;endSize=12;html=1;rounded=0;fontFamily=Helvetica;fontSize=12;fontColor=default;exitX=0.196;exitY=1.01;exitDx=0;exitDy=0;exitPerimeter=0;" edge="1" parent="1" source="z_dfq3fB56m8ApO_WFzZ-48">
          <mxGeometry width="160" relative="1" as="geometry">
            <mxPoint x="525" y="220" as="sourcePoint" />
            <mxPoint x="522" y="270" as="targetPoint" />
          </mxGeometry>
        </mxCell>
        <mxCell id="z_dfq3fB56m8ApO_WFzZ-51" value="" style="endArrow=block;startArrow=block;endFill=1;startFill=1;html=1;rounded=0;fontFamily=Helvetica;fontSize=12;fontColor=default;exitX=0.5;exitY=1;exitDx=0;exitDy=0;entryX=1;entryY=0;entryDx=0;entryDy=0;" edge="1" parent="1" target="z_dfq3fB56m8ApO_WFzZ-48" source="z_dfq3fB56m8ApO_WFzZ-8">
          <mxGeometry width="160" relative="1" as="geometry">
            <mxPoint x="560" y="110.00000000000011" as="sourcePoint" />
            <mxPoint x="710" y="110" as="targetPoint" />
          </mxGeometry>
        </mxCell>
        <mxCell id="z_dfq3fB56m8ApO_WFzZ-52" value="" style="endArrow=block;startArrow=block;endFill=1;startFill=1;html=1;rounded=0;fontFamily=Helvetica;fontSize=12;fontColor=default;exitX=0.5;exitY=1;exitDx=0;exitDy=0;entryX=0;entryY=0;entryDx=0;entryDy=0;" edge="1" parent="1" target="z_dfq3fB56m8ApO_WFzZ-48" source="z_dfq3fB56m8ApO_WFzZ-6">
          <mxGeometry width="160" relative="1" as="geometry">
            <mxPoint x="430" y="110.00000000000011" as="sourcePoint" />
            <mxPoint x="570" y="175" as="targetPoint" />
          </mxGeometry>
        </mxCell>
        <mxCell id="z_dfq3fB56m8ApO_WFzZ-53" value="return" style="html=1;verticalAlign=bottom;endArrow=open;dashed=1;endSize=8;rounded=0;fontFamily=Helvetica;fontSize=12;fontColor=default;exitX=0.69;exitY=-0.003;exitDx=0;exitDy=0;exitPerimeter=0;entryX=0.75;entryY=1;entryDx=0;entryDy=0;" edge="1" parent="1" source="z_dfq3fB56m8ApO_WFzZ-46" target="z_dfq3fB56m8ApO_WFzZ-48">
          <mxGeometry relative="1" as="geometry">
            <mxPoint x="725" y="240" as="sourcePoint" />
            <mxPoint x="575" y="220" as="targetPoint" />
          </mxGeometry>
        </mxCell>
        <mxCell id="z_dfq3fB56m8ApO_WFzZ-54" value="" style="endArrow=block;startArrow=block;endFill=1;startFill=1;html=1;rounded=0;fontFamily=Helvetica;fontSize=12;fontColor=default;entryX=0.5;entryY=1;entryDx=0;entryDy=0;exitX=0.5;exitY=0;exitDx=0;exitDy=0;" edge="1" parent="1" source="z_dfq3fB56m8ApO_WFzZ-49" target="z_dfq3fB56m8ApO_WFzZ-46">
          <mxGeometry width="160" relative="1" as="geometry">
            <mxPoint x="455" y="360" as="sourcePoint" />
            <mxPoint x="615" y="360" as="targetPoint" />
          </mxGeometry>
        </mxCell>
        <mxCell id="z_dfq3fB56m8ApO_WFzZ-55" value="" style="endArrow=block;startArrow=block;endFill=1;startFill=1;html=1;rounded=0;fontFamily=Helvetica;fontSize=12;fontColor=default;exitX=0.5;exitY=1;exitDx=0;exitDy=0;" edge="1" parent="1" source="z_dfq3fB56m8ApO_WFzZ-27" target="z_dfq3fB56m8ApO_WFzZ-31">
          <mxGeometry width="160" relative="1" as="geometry">
            <mxPoint x="565" y="390" as="sourcePoint" />
            <mxPoint x="565" y="350" as="targetPoint" />
          </mxGeometry>
        </mxCell>
        <mxCell id="z_dfq3fB56m8ApO_WFzZ-56" value="@Service&lt;span style=&quot;&quot;&gt;&lt;br&gt;&lt;/span&gt;&lt;span style=&quot;&quot;&gt;Category&lt;/span&gt;&lt;span style=&quot;&quot;&gt;ServiceImpl&lt;br&gt;&lt;/span&gt;" style="html=1;dropTarget=0;strokeColor=default;fontFamily=Helvetica;fontSize=12;fontColor=default;fillColor=default;" vertex="1" parent="1">
          <mxGeometry x="770" y="270" width="150" height="70" as="geometry" />
        </mxCell>
        <mxCell id="z_dfq3fB56m8ApO_WFzZ-57" value="" style="shape=module;jettyWidth=8;jettyHeight=4;strokeColor=default;fontFamily=Helvetica;fontSize=12;fontColor=default;fillColor=default;html=1;" vertex="1" parent="z_dfq3fB56m8ApO_WFzZ-56">
          <mxGeometry x="1" width="20" height="20" relative="1" as="geometry">
            <mxPoint x="-27" y="7" as="offset" />
          </mxGeometry>
        </mxCell>
        <mxCell id="z_dfq3fB56m8ApO_WFzZ-58" value="interface&lt;br&gt;&lt;span style=&quot;&quot;&gt;Category&lt;/span&gt;Service" style="html=1;strokeColor=default;fontFamily=Helvetica;fontSize=12;fontColor=default;fillColor=default;" vertex="1" parent="1">
          <mxGeometry x="790" y="165" width="110" height="50" as="geometry" />
        </mxCell>
        <mxCell id="z_dfq3fB56m8ApO_WFzZ-59" value="@Repository&lt;br&gt;&lt;span style=&quot;&quot;&gt;Category&lt;/span&gt;Repository" style="html=1;strokeColor=default;fontFamily=Helvetica;fontSize=12;fontColor=default;fillColor=default;" vertex="1" parent="1">
          <mxGeometry x="770" y="375" width="150" height="60" as="geometry" />
        </mxCell>
        <mxCell id="z_dfq3fB56m8ApO_WFzZ-60" value="" style="endArrow=block;dashed=1;endFill=0;endSize=12;html=1;rounded=0;fontFamily=Helvetica;fontSize=12;fontColor=default;exitX=0.196;exitY=1.01;exitDx=0;exitDy=0;exitPerimeter=0;" edge="1" parent="1" source="z_dfq3fB56m8ApO_WFzZ-58">
          <mxGeometry width="160" relative="1" as="geometry">
            <mxPoint x="815" y="220" as="sourcePoint" />
            <mxPoint x="812" y="270" as="targetPoint" />
          </mxGeometry>
        </mxCell>
        <mxCell id="z_dfq3fB56m8ApO_WFzZ-61" value="" style="endArrow=block;startArrow=block;endFill=1;startFill=1;html=1;rounded=0;fontFamily=Helvetica;fontSize=12;fontColor=default;exitX=0.5;exitY=1;exitDx=0;exitDy=0;entryX=1;entryY=0;entryDx=0;entryDy=0;" edge="1" parent="1" target="z_dfq3fB56m8ApO_WFzZ-58">
          <mxGeometry width="160" relative="1" as="geometry">
            <mxPoint x="910" y="110" as="sourcePoint" />
            <mxPoint x="1000" y="110" as="targetPoint" />
          </mxGeometry>
        </mxCell>
        <mxCell id="z_dfq3fB56m8ApO_WFzZ-62" value="" style="endArrow=block;startArrow=block;endFill=1;startFill=1;html=1;rounded=0;fontFamily=Helvetica;fontSize=12;fontColor=default;exitX=0.5;exitY=1;exitDx=0;exitDy=0;entryX=0;entryY=0;entryDx=0;entryDy=0;" edge="1" parent="1" target="z_dfq3fB56m8ApO_WFzZ-58">
          <mxGeometry width="160" relative="1" as="geometry">
            <mxPoint x="780" y="110" as="sourcePoint" />
            <mxPoint x="860" y="175" as="targetPoint" />
          </mxGeometry>
        </mxCell>
        <mxCell id="z_dfq3fB56m8ApO_WFzZ-63" value="return" style="html=1;verticalAlign=bottom;endArrow=open;dashed=1;endSize=8;rounded=0;fontFamily=Helvetica;fontSize=12;fontColor=default;exitX=0.69;exitY=-0.003;exitDx=0;exitDy=0;exitPerimeter=0;entryX=0.75;entryY=1;entryDx=0;entryDy=0;" edge="1" parent="1" source="z_dfq3fB56m8ApO_WFzZ-56" target="z_dfq3fB56m8ApO_WFzZ-58">
          <mxGeometry relative="1" as="geometry">
            <mxPoint x="1015" y="240" as="sourcePoint" />
            <mxPoint x="865" y="220" as="targetPoint" />
          </mxGeometry>
        </mxCell>
        <mxCell id="z_dfq3fB56m8ApO_WFzZ-64" value="" style="endArrow=block;startArrow=block;endFill=1;startFill=1;html=1;rounded=0;fontFamily=Helvetica;fontSize=12;fontColor=default;entryX=0.5;entryY=1;entryDx=0;entryDy=0;exitX=0.5;exitY=0;exitDx=0;exitDy=0;" edge="1" parent="1" source="z_dfq3fB56m8ApO_WFzZ-59" target="z_dfq3fB56m8ApO_WFzZ-56">
          <mxGeometry width="160" relative="1" as="geometry">
            <mxPoint x="745" y="360" as="sourcePoint" />
            <mxPoint x="905" y="360" as="targetPoint" />
          </mxGeometry>
        </mxCell>
        <mxCell id="z_dfq3fB56m8ApO_WFzZ-65" value="@Service&lt;span style=&quot;&quot;&gt;&lt;br&gt;&lt;/span&gt;&lt;span style=&quot;&quot;&gt;Request&lt;/span&gt;&lt;span style=&quot;&quot;&gt;ServiceImpl&lt;br&gt;&lt;/span&gt;" style="html=1;dropTarget=0;strokeColor=default;fontFamily=Helvetica;fontSize=12;fontColor=default;fillColor=default;" vertex="1" parent="1">
          <mxGeometry x="1060" y="270" width="150" height="70" as="geometry" />
        </mxCell>
        <mxCell id="z_dfq3fB56m8ApO_WFzZ-66" value="" style="shape=module;jettyWidth=8;jettyHeight=4;strokeColor=default;fontFamily=Helvetica;fontSize=12;fontColor=default;fillColor=default;html=1;" vertex="1" parent="z_dfq3fB56m8ApO_WFzZ-65">
          <mxGeometry x="1" width="20" height="20" relative="1" as="geometry">
            <mxPoint x="-27" y="7" as="offset" />
          </mxGeometry>
        </mxCell>
        <mxCell id="z_dfq3fB56m8ApO_WFzZ-67" value="interface&lt;br&gt;&lt;span style=&quot;&quot;&gt;Request&lt;/span&gt;Service" style="html=1;strokeColor=default;fontFamily=Helvetica;fontSize=12;fontColor=default;fillColor=default;" vertex="1" parent="1">
          <mxGeometry x="1080" y="165" width="110" height="50" as="geometry" />
        </mxCell>
        <mxCell id="z_dfq3fB56m8ApO_WFzZ-68" value="@Repository&lt;br&gt;&lt;span style=&quot;&quot;&gt;Request&lt;/span&gt;Repository" style="html=1;strokeColor=default;fontFamily=Helvetica;fontSize=12;fontColor=default;fillColor=default;" vertex="1" parent="1">
          <mxGeometry x="1060" y="375" width="150" height="60" as="geometry" />
        </mxCell>
        <mxCell id="z_dfq3fB56m8ApO_WFzZ-69" value="" style="endArrow=block;dashed=1;endFill=0;endSize=12;html=1;rounded=0;fontFamily=Helvetica;fontSize=12;fontColor=default;exitX=0.196;exitY=1.01;exitDx=0;exitDy=0;exitPerimeter=0;" edge="1" parent="1" source="z_dfq3fB56m8ApO_WFzZ-67">
          <mxGeometry width="160" relative="1" as="geometry">
            <mxPoint x="1105" y="220" as="sourcePoint" />
            <mxPoint x="1101.9999999999995" y="270" as="targetPoint" />
          </mxGeometry>
        </mxCell>
        <mxCell id="z_dfq3fB56m8ApO_WFzZ-70" value="" style="endArrow=block;startArrow=block;endFill=1;startFill=1;html=1;rounded=0;fontFamily=Helvetica;fontSize=12;fontColor=default;exitX=0.5;exitY=1;exitDx=0;exitDy=0;entryX=1;entryY=0;entryDx=0;entryDy=0;" edge="1" parent="1" target="z_dfq3fB56m8ApO_WFzZ-67">
          <mxGeometry width="160" relative="1" as="geometry">
            <mxPoint x="1200" y="110" as="sourcePoint" />
            <mxPoint x="1290" y="110" as="targetPoint" />
          </mxGeometry>
        </mxCell>
        <mxCell id="z_dfq3fB56m8ApO_WFzZ-71" value="" style="endArrow=block;startArrow=block;endFill=1;startFill=1;html=1;rounded=0;fontFamily=Helvetica;fontSize=12;fontColor=default;exitX=0.5;exitY=1;exitDx=0;exitDy=0;entryX=0;entryY=0;entryDx=0;entryDy=0;" edge="1" parent="1" target="z_dfq3fB56m8ApO_WFzZ-67">
          <mxGeometry width="160" relative="1" as="geometry">
            <mxPoint x="1070" y="110" as="sourcePoint" />
            <mxPoint x="1150" y="175" as="targetPoint" />
          </mxGeometry>
        </mxCell>
        <mxCell id="z_dfq3fB56m8ApO_WFzZ-72" value="return" style="html=1;verticalAlign=bottom;endArrow=open;dashed=1;endSize=8;rounded=0;fontFamily=Helvetica;fontSize=12;fontColor=default;exitX=0.69;exitY=-0.003;exitDx=0;exitDy=0;exitPerimeter=0;entryX=0.75;entryY=1;entryDx=0;entryDy=0;" edge="1" parent="1" source="z_dfq3fB56m8ApO_WFzZ-65" target="z_dfq3fB56m8ApO_WFzZ-67">
          <mxGeometry relative="1" as="geometry">
            <mxPoint x="1305" y="240" as="sourcePoint" />
            <mxPoint x="1155" y="220" as="targetPoint" />
          </mxGeometry>
        </mxCell>
        <mxCell id="z_dfq3fB56m8ApO_WFzZ-73" value="" style="endArrow=block;startArrow=block;endFill=1;startFill=1;html=1;rounded=0;fontFamily=Helvetica;fontSize=12;fontColor=default;entryX=0.5;entryY=1;entryDx=0;entryDy=0;exitX=0.5;exitY=0;exitDx=0;exitDy=0;" edge="1" parent="1" source="z_dfq3fB56m8ApO_WFzZ-68" target="z_dfq3fB56m8ApO_WFzZ-65">
          <mxGeometry width="160" relative="1" as="geometry">
            <mxPoint x="1035" y="360" as="sourcePoint" />
            <mxPoint x="1195" y="360" as="targetPoint" />
          </mxGeometry>
        </mxCell>
        <mxCell id="z_dfq3fB56m8ApO_WFzZ-74" value="@Service&lt;span style=&quot;&quot;&gt;&lt;br&gt;UserServiceImpl&lt;br&gt;&lt;/span&gt;" style="html=1;dropTarget=0;strokeColor=default;fontFamily=Helvetica;fontSize=12;fontColor=default;fillColor=default;" vertex="1" parent="1">
          <mxGeometry x="1300" y="265" width="120" height="70" as="geometry" />
        </mxCell>
        <mxCell id="z_dfq3fB56m8ApO_WFzZ-75" value="" style="shape=module;jettyWidth=8;jettyHeight=4;strokeColor=default;fontFamily=Helvetica;fontSize=12;fontColor=default;fillColor=default;html=1;" vertex="1" parent="z_dfq3fB56m8ApO_WFzZ-74">
          <mxGeometry x="1" width="20" height="20" relative="1" as="geometry">
            <mxPoint x="-27" y="7" as="offset" />
          </mxGeometry>
        </mxCell>
        <mxCell id="z_dfq3fB56m8ApO_WFzZ-76" value="interface&lt;br&gt;UserService" style="html=1;strokeColor=default;fontFamily=Helvetica;fontSize=12;fontColor=default;fillColor=default;" vertex="1" parent="1">
          <mxGeometry x="1305" y="160" width="110" height="50" as="geometry" />
        </mxCell>
        <mxCell id="z_dfq3fB56m8ApO_WFzZ-77" value="@Repository&lt;br&gt;UserRepository" style="html=1;strokeColor=default;fontFamily=Helvetica;fontSize=12;fontColor=default;fillColor=default;" vertex="1" parent="1">
          <mxGeometry x="1305" y="375" width="110" height="50" as="geometry" />
        </mxCell>
        <mxCell id="z_dfq3fB56m8ApO_WFzZ-78" value="" style="endArrow=block;dashed=1;endFill=0;endSize=12;html=1;rounded=0;fontFamily=Helvetica;fontSize=12;fontColor=default;entryX=0.25;entryY=0;entryDx=0;entryDy=0;" edge="1" parent="1" target="z_dfq3fB56m8ApO_WFzZ-74">
          <mxGeometry width="160" relative="1" as="geometry">
            <mxPoint x="1330" y="215" as="sourcePoint" />
            <mxPoint x="1510" y="205" as="targetPoint" />
          </mxGeometry>
        </mxCell>
        <mxCell id="z_dfq3fB56m8ApO_WFzZ-79" value="" style="endArrow=block;startArrow=block;endFill=1;startFill=1;html=1;rounded=0;fontFamily=Helvetica;fontSize=12;fontColor=default;" edge="1" parent="1" target="z_dfq3fB56m8ApO_WFzZ-76">
          <mxGeometry width="160" relative="1" as="geometry">
            <mxPoint x="1360" y="110" as="sourcePoint" />
            <mxPoint x="1510" y="105" as="targetPoint" />
          </mxGeometry>
        </mxCell>
        <mxCell id="z_dfq3fB56m8ApO_WFzZ-80" value="return" style="html=1;verticalAlign=bottom;endArrow=open;dashed=1;endSize=8;rounded=0;fontFamily=Helvetica;fontSize=12;fontColor=default;exitX=0.657;exitY=0.011;exitDx=0;exitDy=0;exitPerimeter=0;" edge="1" parent="1" source="z_dfq3fB56m8ApO_WFzZ-74">
          <mxGeometry relative="1" as="geometry">
            <mxPoint x="1530" y="235" as="sourcePoint" />
            <mxPoint x="1380" y="215" as="targetPoint" />
          </mxGeometry>
        </mxCell>
        <mxCell id="z_dfq3fB56m8ApO_WFzZ-81" value="" style="endArrow=block;startArrow=block;endFill=1;startFill=1;html=1;rounded=0;fontFamily=Helvetica;fontSize=12;fontColor=default;exitX=0.5;exitY=1;exitDx=0;exitDy=0;" edge="1" parent="1" source="z_dfq3fB56m8ApO_WFzZ-74" target="z_dfq3fB56m8ApO_WFzZ-77">
          <mxGeometry width="160" relative="1" as="geometry">
            <mxPoint x="1725" y="385" as="sourcePoint" />
            <mxPoint x="1725" y="345" as="targetPoint" />
          </mxGeometry>
        </mxCell>
      </root>
    </mxGraphModel>
  </diagram>
</mxfile>
